# xmcd
#
# Track frame offsets: 
#        150
#        15423
#        28707
#        41979
#        55167
#        69132
#        83570
#        98157
#        112592
#        127603
#        142652
#        156470
#        169854
#        183591
#        196943
#        211158
#        225034
#        239504
#        252029
#        266061
#        280048
#        296002
#        311196
#        325199
#
# Disc length: 4529 seconds
#
# Revision: 0
# Processed by: cddbd v1.5.2PL0 Copyright (c) Steve Scherf et al.
# Submitted via: ExactAudioCopyFreeDBPlugin 1.0
#
DISCID=3b11af18
DTITLE=Texas Alexander and His Circle - 1927-1951 Authentic Early Texas 
DTITLE=Country Blues CD 2
DYEAR=2017
DGENRE=Texas Blues
TTITLE0=Blue Devil Blues
TTITLE1=Tell Me Woman Blues
TTITLE2='Frisco Train Blues
TTITLE3=St Louis Fair Blues
TTITLE4=I Am Calling Blues
TTITLE5=Double Crossing Blues
TTITLE6=Ninety-Eight Degree Blues [Take A]
TTITLE7=Someday, Baby, Your Troubles Is Gonna Be Like Mine
TTITLE8=Water Bound Blues
TTITLE9=Awful Moaning Blues, Pt 1
TTITLE10=Awful Moaning Blues, Pt 2
TTITLE11=Gold Tooth Blues
TTITLE12=Johnny Behrens Blues
TTITLE13=Ninety-Eight Degree Blues [Take B]
TTITLE14=Rolling Mill Blues
TTITLE15=Broken Yo Yo
TTITLE16=Texas Special
TTITLE17=When You Get to Thinking
TTITLE18=Thirty Day Blues
TTITLE19=Peaceful Blues
TTITLE20=Day Is Lonesome
TTITLE21=Seen Better Days
TTITLE22=Last Stage Blues
TTITLE23=Stealing to Her Man
EXTD=
EXTT0=
EXTT1=
EXTT2=
EXTT3=
EXTT4=
EXTT5=
EXTT6=
EXTT7=
EXTT8=
EXTT9=
EXTT10=
EXTT11=
EXTT12=
EXTT13=
EXTT14=
EXTT15=
EXTT16=
EXTT17=
EXTT18=
EXTT19=
EXTT20=
EXTT21=
EXTT22=
EXTT23=
PLAYORDER=
